# xmcd CD database file
#
# Track frame offsets:
#	150
#	30470
#	53762
#	90107
#	113675
#	139907
#	183255
#	219847
#	246162
#	277282
#	302295
#
# Disc length: 4570 seconds
#
# Revision: 0
# Processed by: cddbd v1.5.1PL0 Copyright (c) Steve Scherf et al.
# Submitted via: CDex 1.50beta8
#
DISCID=8911d80b
DTITLE=Various Artist - Jazz Ballade
DYEAR=2003
DGENRE=Jazz
TTITLE0=Everything Must Change/Manhattan Trinity with Eric Alexander
TTITLE1=Ballad Of The Sad Young Man/European Jazz Trio with Art Farmer
TTITLE2=Cry Me A River/Junior Mance with Eric Alexander
TTITLE3=Caminamos/Dominick Farinacci
TTITLE4=Ne Me Quitte Pas/Karel Boehlee
TTITLE5=Quiet Temple/Barnet Wilen with Mal Waldron
TTITLE6=Europa/European Jaza Trio
TTITLE7=The Green Leaves Of Summer/Liew Matthews with Hubert Laws
TTITLE8=Harbour Lights/Joe Locke
TTITLE9=Maybe September/Dominick Farinacci
TTITLE10=Yesterdays/Tommy Flanagan with Kenny Burrell
EXTD=YEAR: 2003
EXTT0=
EXTT1=
EXTT2=
EXTT3=
EXTT4=
EXTT5=
EXTT6=
EXTT7=
EXTT8=
EXTT9=
EXTT10=
PLAYORDER=
